HIERARCHY
ROOT Hips
{
	OFFSET 0.000000 83.214638 0.000000
	CHANNELS 6 Xposition Yposition Zposition Xrotation Yrotation Zrotation
	JOINT Pelvis
	{
		OFFSET 0.000000 0.000000 0.000000
		CHANNELS 3 Xrotation Yrotation Zrotation
		JOINT LeftUpLeg
		{
			OFFSET 8.479700 -4.795502 -0.379100
			CHANNELS 3 Xrotation Yrotation Zrotation
			JOINT LeftLeg
			{
				OFFSET 0.024144 -32.555107 0.112900
				CHANNELS 3 Xrotation Yrotation Zrotation
				JOINT LeftFoot
				{
					OFFSET -0.024144 -32.638630 -3.012600
					CHANNELS 3 Xrotation Yrotation Zrotation
					JOINT LeftToeBase
					{
						OFFSET 0.970200 -13.225400 11.864200
						CHANNELS 3 Xrotation Yrotation Zrotation
						End Site
						{
							OFFSET 0.000000 12.319262 0.000000
						}
					}
					JOINT LFootTongue
					{
						OFFSET 1.142400 -1.059800 6.665200
						CHANNELS 3 Xrotation Yrotation Zrotation
						End Site
						{
							OFFSET 0.000000 12.319262 0.000000
						}
					}
				}
				JOINT LeftPantLeg
				{
					OFFSET 0.918482 -16.533964 -2.284700
					CHANNELS 3 Xrotation Yrotation Zrotation
					End Site
					{
						OFFSET 0.350399 24.744368 0.000000
					}
				}
			}
		}
		JOINT RightUpLeg
		{
			OFFSET -8.479700 -4.795502 -0.379100
			CHANNELS 3 Xrotation Yrotation Zrotation
			JOINT RightLeg
			{
				OFFSET -0.023144 -32.555092 0.112900
				CHANNELS 3 Xrotation Yrotation Zrotation
				JOINT RightFoot
				{
					OFFSET 0.023144 -32.638641 -3.012700
					CHANNELS 3 Xrotation Yrotation Zrotation
					JOINT RightToeBase
					{
						OFFSET -0.970200 -13.225400 11.864200
						CHANNELS 3 Xrotation Yrotation Zrotation
						End Site
						{
							OFFSET 0.000000 12.319244 0.000000
						}
					}
					JOINT RFootTongue
					{
						OFFSET -1.142200 -1.059800 6.665200
						CHANNELS 3 Xrotation Yrotation Zrotation
						End Site
						{
							OFFSET 0.000000 12.319243 0.000000
						}
					}
				}
				JOINT RightPantLeg
				{
					OFFSET -0.919482 -16.533978 -2.284800
					CHANNELS 3 Xrotation Yrotation Zrotation
					End Site
					{
						OFFSET -0.350400 24.744419 0.000000
					}
				}
			}
		}
	}
	JOINT Spine
	{
		OFFSET 0.000000 7.722000 1.166200
		CHANNELS 3 Xrotation Yrotation Zrotation
		JOINT Spine1
		{
			OFFSET 0.000000 12.024101 0.248800
			CHANNELS 3 Xrotation Yrotation Zrotation
			JOINT Spine2
			{
				OFFSET 0.000000 11.502998 -0.491200
				CHANNELS 3 Xrotation Yrotation Zrotation
				JOINT Neck
				{
					OFFSET 0.000000 18.430702 -3.123100
					CHANNELS 3 Xrotation Yrotation Zrotation
					JOINT Head
					{
						OFFSET 0.000000 9.051102 1.034000
						CHANNELS 3 Xrotation Yrotation Zrotation
						JOINT HairB
						{
							OFFSET 0.208400 24.786102 24.822300
							CHANNELS 3 Xrotation Yrotation Zrotation
							End Site
							{
								OFFSET 0.000000 32.263779 0.000000
							}
						}
						JOINT HairA
						{
							OFFSET -7.081100 24.428299 23.196600
							CHANNELS 3 Xrotation Yrotation Zrotation
							End Site
							{
								OFFSET 0.000000 32.263779 0.000000
							}
						}
						JOINT Hat
						{
							OFFSET 16.728800 15.048294 -15.439601
							CHANNELS 3 Xrotation Yrotation Zrotation
							End Site
							{
								OFFSET 0.000000 32.263779 0.000000
							}
						}
					}
				}
				JOINT LeftShoulder
				{
					OFFSET 6.197800 13.665199 -4.064700
					CHANNELS 3 Xrotation Yrotation Zrotation
					JOINT LeftArm
					{
						OFFSET 7.778100 -0.187103 -1.709300
						CHANNELS 3 Xrotation Yrotation Zrotation
						JOINT LeftForeArm
						{
							OFFSET 22.049376 0.000000 0.000000
							CHANNELS 3 Xrotation Yrotation Zrotation
							JOINT LeftHand
							{
								OFFSET 23.009392 0.000000 0.000000
								CHANNELS 3 Xrotation Yrotation Zrotation
								JOINT LeftHandThumb1
								{
									OFFSET 3.507191 -2.063065 3.133727
									CHANNELS 3 Xrotation Yrotation Zrotation
									JOINT LeftHandThumb2
									{
										OFFSET 3.101337 -1.790558 1.790558
										CHANNELS 3 Xrotation Yrotation Zrotation
										JOINT LeftHandThumb3
										{
											OFFSET 3.058640 -1.765907 1.765906
											CHANNELS 3 Xrotation Yrotation Zrotation
											End Site
											{
												OFFSET -0.415260 3.926476 -0.049563
											}
										}
									}
								}
								JOINT LeftHandIndex1
								{
									OFFSET 11.334419 -0.901459 3.706815
									CHANNELS 3 Xrotation Yrotation Zrotation
									JOINT LeftHandIndex2
									{
										OFFSET 3.283112 0.000000 0.000000
										CHANNELS 3 Xrotation Yrotation Zrotation
										JOINT LeftHandIndex3
										{
											OFFSET 3.323853 0.000000 0.000000
											CHANNELS 3 Xrotation Yrotation Zrotation
											End Site
											{
												OFFSET -1.135597 3.097809 0.402452
											}
										}
									}
								}
								JOINT LeftHandMiddle1
								{
									OFFSET 11.335861 0.000000 0.000000
									CHANNELS 3 Xrotation Yrotation Zrotation
									JOINT LeftHandMiddle2
									{
										OFFSET 3.410492 0.000000 0.000000
										CHANNELS 3 Xrotation Yrotation Zrotation
										JOINT LeftHandMiddle3
										{
											OFFSET 3.312172 0.000000 0.000000
											CHANNELS 3 Xrotation Yrotation Zrotation
											End Site
											{
												OFFSET -1.150200 3.080154 0.400270
											}
										}
									}
								}
								JOINT LeftHandRing1
								{
									OFFSET 11.514786 -0.013176 -3.003090
									CHANNELS 3 Xrotation Yrotation Zrotation
									JOINT LeftHandRing2
									{
										OFFSET 3.053307 0.000000 0.000000
										CHANNELS 3 Xrotation Yrotation Zrotation
										JOINT LeftHandRing3
										{
											OFFSET 3.295807 0.000000 0.000000
											CHANNELS 3 Xrotation Yrotation Zrotation
											End Site
											{
												OFFSET -1.281006 3.013344 0.375733
											}
										}
									}
								}
								JOINT LeftHandPinky1
								{
									OFFSET 10.518692 -0.960396 -5.730441
									CHANNELS 3 Xrotation Yrotation Zrotation
									JOINT LeftHandPinky2
									{
										OFFSET 2.861649 0.000000 0.000000
										CHANNELS 3 Xrotation Yrotation Zrotation
										JOINT LeftHandPinky3
										{
											OFFSET 2.863380 0.000000 0.000000
											CHANNELS 3 Xrotation Yrotation Zrotation
											End Site
											{
												OFFSET -0.843597 2.711159 0.369971
											}
										}
									}
								}
							}
							JOINT LSleeve
							{
								OFFSET 6.676277 -0.344902 -1.011730
								CHANNELS 3 Xrotation Yrotation Zrotation
								End Site
								{
									OFFSET 0.000000 14.885353 0.000000
								}
							}
						}
					}
				}
				JOINT RightShoulder
				{
					OFFSET -6.197800 13.665199 -4.064700
					CHANNELS 3 Xrotation Yrotation Zrotation
					JOINT RightArm
					{
						OFFSET -7.778100 -0.187103 -1.709300
						CHANNELS 3 Xrotation Yrotation Zrotation
						JOINT RightForeArm
						{
							OFFSET -22.049376 0.000000 0.000000
							CHANNELS 3 Xrotation Yrotation Zrotation
							JOINT RightHand
							{
								OFFSET -23.009392 0.000000 0.000000
								CHANNELS 3 Xrotation Yrotation Zrotation
								JOINT RightHandThumb1
								{
									OFFSET -3.507191 -2.063065 3.133727
									CHANNELS 3 Xrotation Yrotation Zrotation
									JOINT RightHandThumb2
									{
										OFFSET -3.101337 -1.790558 1.790558
										CHANNELS 3 Xrotation Yrotation Zrotation
										JOINT RightHandThumb3
										{
											OFFSET -3.058640 -1.765907 1.765906
											CHANNELS 3 Xrotation Yrotation Zrotation
											End Site
											{
												OFFSET 0.415260 3.926476 -0.049563
											}
										}
									}
								}
								JOINT RightHandIndex1
								{
									OFFSET -11.334419 -0.901459 3.706815
									CHANNELS 3 Xrotation Yrotation Zrotation
									JOINT RightHandIndex2
									{
										OFFSET -3.283112 0.000000 0.000000
										CHANNELS 3 Xrotation Yrotation Zrotation
										JOINT RightHandIndex3
										{
											OFFSET -3.323853 0.000000 0.000000
											CHANNELS 3 Xrotation Yrotation Zrotation
											End Site
											{
												OFFSET 1.135597 3.097809 0.402452
											}
										}
									}
								}
								JOINT RightHandMiddle1
								{
									OFFSET -11.335861 0.000000 0.000000
									CHANNELS 3 Xrotation Yrotation Zrotation
									JOINT RightHandMiddle2
									{
										OFFSET -3.410492 0.000000 0.000000
										CHANNELS 3 Xrotation Yrotation Zrotation
										JOINT RightHandMiddle3
										{
											OFFSET -3.312172 0.000000 0.000000
											CHANNELS 3 Xrotation Yrotation Zrotation
											End Site
											{
												OFFSET 1.150200 3.080154 0.400270
											}
										}
									}
								}
								JOINT RightHandRing1
								{
									OFFSET -11.514786 -0.013176 -3.003090
									CHANNELS 3 Xrotation Yrotation Zrotation
									JOINT RightHandRing2
									{
										OFFSET -3.053307 0.000000 0.000000
										CHANNELS 3 Xrotation Yrotation Zrotation
										JOINT RightHandRing3
										{
											OFFSET -3.295807 0.000000 0.000000
											CHANNELS 3 Xrotation Yrotation Zrotation
											End Site
											{
												OFFSET 1.281006 3.013344 0.375733
											}
										}
									}
								}
								JOINT RightHandPinky1
								{
									OFFSET -10.518692 -0.960396 -5.730441
									CHANNELS 3 Xrotation Yrotation Zrotation
									JOINT RightHandPinky2
									{
										OFFSET -2.861649 0.000000 0.000000
										CHANNELS 3 Xrotation Yrotation Zrotation
										JOINT RightHandPinky3
										{
											OFFSET -2.863380 0.000000 0.000000
											CHANNELS 3 Xrotation Yrotation Zrotation
											End Site
											{
												OFFSET 0.843597 2.711159 0.369971
											}
										}
									}
								}
							}
							JOINT RSleeve
							{
								OFFSET -6.676277 -0.344902 -1.011730
								CHANNELS 3 Xrotation Yrotation Zrotation
								End Site
								{
									OFFSET 0.000000 14.885353 0.000000
								}
							}
						}
					}
				}
				JOINT Backpack
				{
					OFFSET 0.000000 -2.471497 36.677502
					CHANNELS 3 Xrotation Yrotation Zrotation
					End Site
					{
						OFFSET 0.000000 20.427315 0.000000
					}
				}
				JOINT Hood
				{
					OFFSET 0.000000 18.754097 -10.431000
					CHANNELS 3 Xrotation Yrotation Zrotation
					JOINT Hood1
					{
						OFFSET 0.000000 -5.011002 -7.685901
						CHANNELS 3 Xrotation Yrotation Zrotation
						End Site
						{
							OFFSET 0.000000 9.175140 0.000000
						}
					}
				}
				JOINT LHoodieString
				{
					OFFSET 5.250500 16.397697 3.089900
					CHANNELS 3 Xrotation Yrotation Zrotation
					JOINT LHoodieString1
					{
						OFFSET 0.257700 -6.364304 3.694600
						CHANNELS 3 Xrotation Yrotation Zrotation
						JOINT LHoodieString2
						{
							OFFSET 0.000000 -9.643799 2.679100
							CHANNELS 3 Xrotation Yrotation Zrotation
							End Site
							{
								OFFSET 0.000000 10.009018 0.000000
							}
						}
					}
				}
				JOINT RHoodieString
				{
					OFFSET -5.250500 16.397697 3.089900
					CHANNELS 3 Xrotation Yrotation Zrotation
					JOINT RHoodieString1
					{
						OFFSET -0.257700 -6.364304 3.694600
						CHANNELS 3 Xrotation Yrotation Zrotation
						JOINT RHoodieString2
						{
							OFFSET 0.000000 -9.643799 2.679100
							CHANNELS 3 Xrotation Yrotation Zrotation
							End Site
							{
								OFFSET 0.000000 10.009018 0.000000
							}
						}
					}
				}
			}
			JOINT LBackpack_Strap
			{
				OFFSET 15.223200 -7.719803 -6.610900
				CHANNELS 3 Xrotation Yrotation Zrotation
				End Site
				{
					OFFSET 0.000000 16.040596 0.000000
				}
			}
			JOINT RBackpack_Strap
			{
				OFFSET -15.223000 -7.719803 -6.610900
				CHANNELS 3 Xrotation Yrotation Zrotation
				End Site
				{
					OFFSET 0.000000 16.040596 0.000000
				}
			}
		}
	}
	JOINT BoyFacialAnim_Joint
	{
		OFFSET 1.000000 -82.208099 -1.550900
		CHANNELS 3 Xrotation Yrotation Zrotation
		End Site
		{
			OFFSET 0.000000 30.012791 0.000000
		}
	}
}
MOTION
Frames: 5
Frame Time: 0.033333
-3.456751 79.974098 -1.645319 12.410071 5.349292 2.826799 0.000000 0.000000 -0.000000 -24.765257 5.449796 -5.500907 25.175638 2.972173 -3.766796 -12.198544 -4.650494 5.668695 -0.000000 0.000000 -0.000000 -0.000000 0.000000 -0.000000 -0.000000 0.000000 -0.000000 -36.596915 -6.453378 -12.959504 30.819354 -1.543738 -1.702801 -5.914256 -15.379059 8.056914 -0.000000 -0.000000 -0.000000 -0.000000 -0.000000 -0.000000 0.000001 0.000000 0.000001 12.634648 2.816491 -17.442398 3.934595 1.919998 2.418147 3.925670 1.992313 2.425019 -2.029339 -3.060213 1.389557 -26.620831 -15.524077 1.951708 0.000000 0.000001 -0.000000 0.000000 0.000001 -0.000000 0.000000 0.000001 -0.000000 1.533793 -11.808237 -15.429969 0.544456 12.138939 -66.236470 -0.000004 -38.354091 0.000009 -1.664105 -6.794026 9.431081 15.903940 -7.574821 11.633871 10.443790 35.384020 -13.558619 0.000000 -0.000001 0.000000 3.448726 6.796926 -62.640601 3.539845 5.376710 -66.697255 -0.000001 0.000000 -0.000002 5.425986 8.590477 -64.527352 4.694465 5.735999 -78.579708 0.000000 -0.000000 0.000000 6.016812 8.948064 -63.164592 5.807121 5.850903 -89.569011 -0.000000 0.000000 -0.000002 5.500560 13.318968 -37.819266 5.345492 5.829273 -85.034400 -0.000000 0.000002 -0.000002 -0.000000 0.000000 0.000000 3.050278 12.104443 -8.674631 -60.806142 5.623693 19.596072 -0.000022 55.371804 0.000014 25.827614 -17.144374 -52.938460 -2.700386 -8.886016 -9.702700 4.186435 1.766986 -0.444028 -0.000000 -0.000000 0.000001 0.052521 -2.494334 2.413805 -0.000005 -0.007693 0.094495 -0.000001 -0.000001 -0.000002 0.052453 -2.484774 2.420294 0.000007 -0.007977 0.097878 0.000001 0.000001 -0.000002 0.051980 -2.473439 2.419213 0.000005 -0.007925 0.097155 -0.000001 -0.000000 0.000002 -0.032280 -2.478327 2.414357 0.000008 -0.000678 0.008246 0.000001 -0.000000 -0.000002 -0.000001 -0.000000 0.000000 -0.000000 0.000000 -0.000000 -0.000000 0.000000 -0.000000 -0.000000 0.000000 -0.000000 -0.000000 0.000000 -0.000000 -0.000000 0.000000 -0.000002 -0.000002 0.000001 -0.000000 -0.000000 0.000000 -0.000000 -0.000000 0.000000 -0.000002 -0.000002 0.000001 -0.000000 0.000002 0.000000 0.000000 0.000002 0.000000 0.000000 0.000000 0.000000 -0.000000 
-3.459603 79.986221 -1.589073 12.528031 5.406446 2.829537 -0.000001 -0.000000 -0.000000 -24.790293 5.385497 -5.558630 25.054770 2.998735 -3.718023 -12.175138 -4.638432 5.625891 0.000000 0.000000 -0.000000 0.000000 0.000000 -0.000000 -0.000001 -0.000002 0.000001 -36.620295 -6.374087 -12.925874 30.776047 -1.640197 -1.761183 -5.927323 -15.411857 8.127509 0.000000 0.000001 -0.000000 0.000000 0.000001 -0.000000 0.000000 -0.000000 -0.000000 12.619300 2.643046 -17.214655 3.901206 1.859959 2.450094 3.893729 1.930987 2.456505 -2.540587 -3.037996 1.372163 -25.691299 -15.353026 2.188508 -0.000000 0.000000 0.000001 -0.000000 0.000000 0.000001 -0.000000 0.000000 0.000001 1.515776 -11.924536 -15.500928 0.538866 11.925312 -66.068379 -0.000009 -38.023065 -0.000003 -1.573909 -6.530507 9.142733 15.902181 -7.585947 11.630063 10.443751 35.383112 -13.557445 -0.000000 -0.000001 0.000002 3.455998 6.800197 -62.719790 3.546346 5.379489 -66.766602 0.000000 0.000000 -0.000005 5.433061 8.590776 -64.598249 4.701420 5.737392 -78.649287 0.000001 -0.000002 0.000005 6.022285 8.947497 -63.220279 5.814228 5.850953 -89.638706 0.000001 -0.000001 0.000001 5.500440 13.319477 -37.820345 5.351103 5.829761 -85.089595 -0.000001 0.000000 -0.000000 0.000000 -0.000000 0.000000 3.034705 11.977349 -8.570899 -60.223574 5.731330 19.111129 0.000021 55.212609 -0.000025 25.704413 -17.319271 -52.848302 -2.699526 -8.885701 -9.702659 4.188319 1.765636 -0.443854 0.000002 0.000001 0.000001 0.051606 -2.494426 2.413188 0.000004 -0.007712 0.094501 -0.000000 0.000000 0.000004 0.052466 -2.485164 2.424376 0.000017 -0.008253 0.101340 0.000003 -0.000001 -0.000002 0.051992 -2.473814 2.423162 0.000019 -0.008235 0.101035 -0.000001 0.000000 0.000000 -0.031398 -2.478725 2.417927 -0.000011 -0.001003 0.012341 0.000001 -0.000002 0.000002 0.000002 -0.000000 -0.000001 -0.000001 0.000001 -0.000001 -0.000001 0.000001 -0.000001 -0.000001 0.000001 -0.000001 -0.000001 0.000001 -0.000001 -0.000001 0.000001 -0.000001 -0.000001 0.000001 -0.000000 -0.000001 0.000001 -0.000001 -0.000001 0.000001 -0.000001 -0.000001 0.000001 -0.000000 -0.000001 0.000001 -0.000000 -0.000001 0.000001 -0.000000 -0.000001 -0.000000 -0.000000 
-3.475385 80.005478 -1.505108 12.525300 5.534207 2.843660 -0.000000 0.000000 -0.000000 -24.637269 5.334594 -5.584397 24.878213 2.909373 -3.733390 -12.142832 -4.619159 5.623639 -0.000000 0.000000 0.000000 -0.000000 0.000000 0.000000 -0.000000 0.000000 -0.000000 -36.500896 -6.365107 -12.958098 30.752855 -1.748018 -1.768200 -5.997327 -15.446312 8.167807 -0.000000 -0.000000 0.000000 -0.000000 -0.000000 0.000000 -0.000000 0.000001 0.000000 12.594725 2.510820 -17.054798 3.861882 1.813818 2.464434 3.855418 1.884469 2.471523 -2.746546 -3.064776 1.356166 -25.176977 -15.430963 2.203473 -0.000000 0.000000 0.000000 -0.000000 0.000000 0.000000 -0.000000 0.000000 0.000000 1.514271 -11.936357 -15.509584 0.552829 11.844252 -66.099142 0.000001 -37.647589 -0.000006 -2.452060 -6.406700 9.071687 15.900429 -7.596987 11.626287 10.443679 35.382204 -13.556204 -0.000001 0.000003 0.000002 3.463186 6.803420 -62.798221 3.552797 5.382241 -66.835416 -0.000001 0.000001 -0.000003 5.440068 8.591061 -64.668497 4.708313 5.738767 -78.718251 0.000001 -0.000001 0.000002 6.027704 8.946936 -63.275433 5.821269 5.850991 -89.707739 0.000000 -0.000001 -0.000004 5.500310 13.319980 -37.821414 5.356653 5.830228 -85.144250 -0.000001 0.000001 -0.000002 -0.000000 -0.000000 -0.000000 3.010766 11.779678 -8.392029 -59.557467 5.629073 18.727892 -0.000003 55.044904 0.000008 25.766503 -17.606899 -52.586525 -2.701120 -8.886524 -9.702511 4.188665 1.769267 -0.444870 0.000000 -0.000001 0.000001 0.051059 -2.494425 2.414635 -0.000003 -0.007716 0.094781 -0.000002 -0.000001 -0.000000 0.052436 -2.484306 2.414772 -0.000001 -0.007632 0.093530 0.000001 -0.000000 -0.000000 0.051957 -2.472891 2.414008 0.000004 -0.007525 0.092310 0.000000 -0.000000 0.000004 -0.029598 -2.477674 2.410041 0.000003 -0.000250 0.003189 0.000001 -0.000001 -0.000002 -0.000000 -0.000001 -0.000000 0.000002 0.000001 -0.000001 0.000002 0.000001 -0.000001 0.000002 0.000001 -0.000001 0.000002 0.000001 -0.000001 0.000002 0.000001 -0.000002 0.000000 0.000000 -0.000001 0.000002 0.000001 -0.000001 0.000002 0.000001 -0.000002 0.000000 0.000000 -0.000001 -0.000001 0.000000 0.000000 -0.000001 0.000000 0.000000 -0.000000 0.000000 -0.000000 
-3.499428 80.017891 -1.400791 12.475137 5.520018 2.866044 -0.000000 -0.000000 -0.000000 -24.469076 5.234329 -5.699518 24.803876 3.098264 -3.525317 -12.212273 -4.600952 5.444479 -0.000000 0.000000 0.000000 -0.000000 0.000000 -0.000000 -0.000000 0.000001 -0.000000 -36.372687 -6.408637 -12.954048 30.765252 -1.701311 -1.769323 -6.104258 -15.475981 8.143184 -0.000000 -0.000001 0.000000 -0.000000 -0.000001 0.000000 -0.000000 -0.000000 0.000000 12.533408 2.460947 -16.962783 3.832739 1.793658 2.463492 3.826600 1.864224 2.471103 -2.716518 -3.088208 1.329959 -25.053347 -15.530967 2.099406 -0.000000 0.000001 0.000000 -0.000000 0.000001 0.000000 -0.000000 0.000001 0.000000 1.519937 -11.898954 -15.498546 0.633310 11.895423 -66.260806 -0.000010 -37.450924 -0.000004 -3.775522 -6.395276 9.213650 15.898695 -7.607918 11.622556 10.443625 35.381278 -13.554919 0.000000 -0.000000 0.000002 3.470299 6.806594 -62.875935 3.559185 5.384964 -66.903513 0.000001 -0.000000 -0.000004 5.447013 8.591338 -64.738056 4.715141 5.740114 -78.786553 0.000001 -0.000001 0.000002 6.033076 8.946377 -63.330047 5.828238 5.851023 -89.776150 -0.000000 0.000001 -0.000004 5.500169 13.320494 -37.822432 5.362154 5.830691 -85.198393 0.000001 0.000000 0.000001 -0.000000 0.000000 -0.000000 2.993263 11.666024 -8.208407 -59.196929 5.333134 18.606827 0.000018 54.944442 -0.000019 25.629132 -17.928719 -52.329556 -2.700447 -8.886035 -9.702542 4.189602 1.767971 -0.444500 0.000002 0.000001 -0.000001 0.050927 -2.493970 2.415073 0.000011 -0.007793 0.095679 0.000001 0.000001 0.000002 0.052430 -2.484364 2.414002 0.000013 -0.007634 0.093854 0.000000 0.000000 0.000003 0.051965 -2.473000 2.413701 0.000002 -0.007570 0.093030 -0.000001 0.000000 0.000000 -0.028742 -2.478001 2.410449 0.000002 -0.000323 0.004098 -0.000001 -0.000001 -0.000002 0.000002 -0.000000 -0.000001 0.000002 -0.000000 0.000000 0.000002 -0.000000 0.000000 0.000002 -0.000000 0.000000 0.000002 -0.000000 0.000000 0.000002 -0.000000 -0.000000 0.000002 -0.000000 -0.000000 0.000002 -0.000000 0.000000 0.000002 -0.000000 -0.000000 0.000002 -0.000000 -0.000000 0.000000 0.000000 -0.000000 0.000000 0.000000 -0.000000 -0.000000 -0.000000 -0.000000 
-3.539283 80.031006 -1.293550 12.340592 5.403476 2.886988 0.000001 -0.000001 -0.000000 -24.222419 5.167376 -5.770777 24.771921 3.323690 -3.296987 -12.323818 -4.589343 5.228633 -0.000000 0.000000 0.000000 -0.000000 0.000000 -0.000000 0.000000 -0.000001 0.000001 -36.176992 -6.502384 -12.898919 30.776798 -1.527998 -1.771184 -6.226718 -15.498517 8.062979 -0.000000 0.000000 0.000000 -0.000000 0.000000 0.000000 0.000001 -0.000000 -0.000001 12.449941 2.495569 -16.935652 3.810728 1.800687 2.451507 3.804183 1.870233 2.457920 -2.550142 -3.087495 1.290787 -25.102760 -15.566148 2.009049 0.000000 0.000000 -0.000000 0.000000 0.000000 -0.000000 0.000000 0.000000 -0.000000 1.515395 -11.925157 -15.523326 0.752470 12.060652 -66.401460 -0.000005 -37.508011 -0.000010 -4.898207 -6.344023 9.395304 15.896978 -7.618729 11.618889 10.443592 35.380332 -13.553649 -0.000001 0.000001 0.000004 3.477343 6.809740 -62.952863 3.565511 5.387639 -66.970906 -0.000000 -0.000000 -0.000002 5.453912 8.591618 -64.806939 4.721907 5.741442 -78.854158 0.000001 -0.000001 0.000000 6.038410 8.945829 -63.384115 5.835144 5.851049 -89.843871 0.000001 -0.000001 0.000001 5.500025 13.320986 -37.823467 5.367594 5.831142 -85.251969 -0.000000 0.000001 -0.000000 -0.000001 0.000000 -0.000000 2.984564 11.650543 -8.065046 -59.035975 4.959663 18.658817 0.000007 54.885727 -0.000005 25.318174 -18.130853 -52.061884 -2.703006 -8.887662 -9.702652 4.189297 1.773137 -0.446011 -0.000002 0.000000 0.000000 0.051112 -2.493470 2.414057 0.000002 -0.007561 0.092819 -0.000002 0.000000 0.000002 0.052429 -2.484062 2.414853 0.000001 -0.007432 0.091392 0.000001 0.000000 0.000003 0.051936 -2.472395 2.413076 0.000008 -0.007260 0.089126 0.000001 -0.000001 0.000004 -0.028511 -2.476537 2.407792 -0.000000 0.000038 -0.000076 -0.000000 -0.000000 0.000002 -0.000001 -0.000001 0.000000 0.000002 0.000000 -0.000001 0.000002 0.000000 -0.000001 0.000002 0.000000 -0.000001 0.000002 0.000000 -0.000001 0.000002 0.000000 -0.000001 0.000001 -0.000000 0.000001 0.000002 0.000000 -0.000001 0.000002 0.000000 -0.000001 0.000001 -0.000000 0.000001 -0.000001 0.000000 -0.000000 -0.000001 0.000000 -0.000000 0.000001 -0.000001 -0.000000 
